<svg xmlns="http://www.w3.org/2000/svg" viewBox="0 0 240 180" role="img">
  <title>Z_MCB: MCB_3P</title>
  <rect x="1" y="1" width="238" height="178" rx="8" fill="none" stroke="currentColor" opacity="0.25"/>
  <polyline points="100.20,38.40 100.20,48.30" fill="none" stroke="currentColor" stroke-width="3" stroke-linejoin="round" stroke-linecap="round"/>
  <polyline points="70.50,48.30 100.20,107.70" fill="none" stroke="currentColor" stroke-width="3" stroke-linejoin="round" stroke-linecap="round"/>
  <polyline points="100.20,107.70 100.20,117.60" fill="none" stroke="currentColor" stroke-width="3" stroke-linejoin="round" stroke-linecap="round"/>
  <polyline points="21.00,78.00 21.00,97.80" fill="none" stroke="currentColor" stroke-width="3" stroke-linejoin="round" stroke-linecap="round"/>
  <polyline points="21.00,87.90 30.90,87.90 40.80,97.80 50.70,87.90 90.30,87.90" fill="none" stroke="currentColor" stroke-width="3" stroke-linejoin="round" stroke-linecap="round"/>
  <polygon points="48.77,78.65 58.75,69.15 62.45,80.25 48.77,78.65" fill="currentColor" stroke="currentColor" stroke-width="3" stroke-linejoin="round" stroke-linecap="round"/>
  <polyline points="60.60,74.70 80.40,68.10" fill="none" stroke="currentColor" stroke-width="3" stroke-linejoin="round" stroke-linecap="round"/>
  <polyline points="159.60,38.40 159.60,48.30" fill="none" stroke="currentColor" stroke-width="3" stroke-linejoin="round" stroke-linecap="round"/>
  <polyline points="129.90,48.30 159.60,107.70" fill="none" stroke="currentColor" stroke-width="3" stroke-linejoin="round" stroke-linecap="round"/>
  <polyline points="159.60,107.70 159.60,117.60" fill="none" stroke="currentColor" stroke-width="3" stroke-linejoin="round" stroke-linecap="round"/>
  <polygon points="108.17,78.65 118.15,69.15 121.85,80.25 108.17,78.65" fill="currentColor" stroke="currentColor" stroke-width="3" stroke-linejoin="round" stroke-linecap="round"/>
  <polyline points="120.00,74.70 139.80,68.10" fill="none" stroke="currentColor" stroke-width="3" stroke-linejoin="round" stroke-linecap="round"/>
  <polyline points="129.90,87.90 149.70,87.90" fill="none" stroke="currentColor" stroke-width="3" stroke-linejoin="round" stroke-linecap="round"/>
  <polyline points="219.00,38.40 219.00,48.30" fill="none" stroke="currentColor" stroke-width="3" stroke-linejoin="round" stroke-linecap="round"/>
  <polyline points="189.30,48.30 219.00,107.70" fill="none" stroke="currentColor" stroke-width="3" stroke-linejoin="round" stroke-linecap="round"/>
  <polyline points="219.00,107.70 219.00,117.60" fill="none" stroke="currentColor" stroke-width="3" stroke-linejoin="round" stroke-linecap="round"/>
  <polygon points="167.57,78.65 177.55,69.15 181.25,80.25 167.57,78.65" fill="currentColor" stroke="currentColor" stroke-width="3" stroke-linejoin="round" stroke-linecap="round"/>
  <polyline points="179.40,74.70 199.20,68.10" fill="none" stroke="currentColor" stroke-width="3" stroke-linejoin="round" stroke-linecap="round"/>
  <polyline points="189.30,87.90 209.10,87.90" fill="none" stroke="currentColor" stroke-width="3" stroke-linejoin="round" stroke-linecap="round"/>
  <polyline points="105.15,87.90 120.00,87.90" fill="none" stroke="currentColor" stroke-width="3" stroke-linejoin="round" stroke-linecap="round"/>
  <polyline points="164.55,87.90 179.40,87.90" fill="none" stroke="currentColor" stroke-width="3" stroke-linejoin="round" stroke-linecap="round"/>
  <line x1="100.20" y1="18.60" x2="100.20" y2="38.40" stroke="currentColor" stroke-width="3" stroke-linecap="round"/>
  <text x="89.20" y="23.60" text-anchor="middle" font-size="16" font-weight="600">1</text>
  <line x1="100.20" y1="137.40" x2="100.20" y2="117.60" stroke="currentColor" stroke-width="3" stroke-linecap="round"/>
  <text x="89.20" y="142.40" text-anchor="middle" font-size="16" font-weight="600">2</text>
  <line x1="159.60" y1="18.60" x2="159.60" y2="38.40" stroke="currentColor" stroke-width="3" stroke-linecap="round"/>
  <text x="148.60" y="23.60" text-anchor="middle" font-size="16" font-weight="600">3</text>
  <line x1="159.60" y1="137.40" x2="159.60" y2="117.60" stroke="currentColor" stroke-width="3" stroke-linecap="round"/>
  <text x="148.60" y="142.40" text-anchor="middle" font-size="16" font-weight="600">4</text>
  <line x1="219.00" y1="18.60" x2="219.00" y2="38.40" stroke="currentColor" stroke-width="3" stroke-linecap="round"/>
  <text x="208.00" y="23.60" text-anchor="middle" font-size="16" font-weight="600">5</text>
  <line x1="219.00" y1="137.40" x2="219.00" y2="117.60" stroke="currentColor" stroke-width="3" stroke-linecap="round"/>
  <text x="208.00" y="142.40" text-anchor="middle" font-size="16" font-weight="600">6</text>
  <text x="120" y="164" text-anchor="middle" font-size="12">MCB_3P</text>
</svg>
