<svg xmlns="http://www.w3.org/2000/svg" viewBox="0 0 240 180" role="img">
  <title>Z_I_ElectricalComponents: MCB_2P</title>
  <rect x="1" y="1" width="238" height="178" rx="8" fill="none" stroke="currentColor" opacity="0.25"/>
  <polyline points="139.81,26.95 139.81,46.76" fill="none" stroke="currentColor" stroke-width="2" stroke-linejoin="round" stroke-linecap="round"/>
  <polyline points="86.47,26.95 86.47,46.76" fill="none" stroke="currentColor" stroke-width="2" stroke-linejoin="round" stroke-linecap="round"/>
  <polyline points="100.19,92.48 132.19,83.33" fill="none" stroke="currentColor" stroke-width="2" stroke-linejoin="round" stroke-linecap="round"/>
  <polyline points="48.37,92.48 78.85,83.33" fill="none" stroke="currentColor" stroke-width="2" stroke-linejoin="round" stroke-linecap="round"/>
  <polygon points="97.14,92.48 104.76,86.38 106.28,94.00 97.14,92.48" fill="currentColor" stroke="currentColor" stroke-width="2" stroke-linejoin="round" stroke-linecap="round"/>
  <polyline points="126.10,52.85 139.81,104.67 139.81,130.58" fill="none" stroke="currentColor" stroke-width="2" stroke-linejoin="round" stroke-linecap="round"/>
  <polyline points="74.28,52.85 86.47,104.67 86.47,130.58" fill="none" stroke="currentColor" stroke-width="2" stroke-linejoin="round" stroke-linecap="round"/>
  <polyline points="97.14,78.76 107.81,75.71 104.76,65.05 115.43,63.52 118.48,74.19 129.14,71.14" fill="none" stroke="currentColor" stroke-width="2" stroke-linejoin="round" stroke-linecap="round"/>
  <polyline points="45.32,78.76 55.99,75.71 52.94,65.05 63.61,63.52 66.66,74.19 77.33,71.14" fill="none" stroke="currentColor" stroke-width="2" stroke-linejoin="round" stroke-linecap="round"/>
  <polygon points="45.32,92.48 52.94,86.38 55.99,94.00 45.32,92.48" fill="currentColor" stroke="currentColor" stroke-width="2" stroke-linejoin="round" stroke-linecap="round"/>
  <polyline points="194.68,25.42 194.68,25.42" fill="none" stroke="currentColor" stroke-width="2" stroke-linejoin="round" stroke-linecap="round"/>
  <line x1="86.47" y1="26.95" x2="101.71" y2="26.95" stroke="currentColor" stroke-width="2"/>
  <line x1="86.47" y1="130.58" x2="101.71" y2="130.58" stroke="currentColor" stroke-width="2"/>
  <line x1="139.81" y1="26.95" x2="124.57" y2="26.95" stroke="currentColor" stroke-width="2"/>
  <line x1="139.81" y1="130.58" x2="139.81" y2="115.34" stroke="currentColor" stroke-width="2"/>
  <text x="120" y="164" text-anchor="middle" font-size="12">MCB_2P</text>
</svg>
